P3
# CREATOR: GIMP PNM Filter Version 1.1
4 4
255
179
72
72
121
232
223
255
255
255
255
255
255
121
232
223
179
72
72
121
232
223
255
255
255
255
255
255
121
232
223
179
72
72
121
232
223
255
255
255
255
255
255
121
232
223
179
72
72
