P3
10 5 255
255 255 51
255 255 51
255 255 51
255 255 51
166 86 40
166 86 40
166 86 40
77 175 74
77 175 74
77 175 74
255 255 51
255 255 51
255 255 51
255 255 255
166 86 40
166 86 40
166 86 40
77 175 74
77 175 74
77 175 74
255 255 51
255 255 51
255 255 51
255 255 255
255 255 255
166 86 40
166 86 40
166 86 40
166 86 40
77 175 74
255 255 51
255 255 51
255 255 51
255 255 51
255 255 51
166 86 40
255 255 255
255 255 255
255 255 255
255 255 255
255 255 51
255 255 51
255 255 51
255 255 51
255 255 51
255 255 51
255 255 51
255 255 51
255 255 255
255 255 255
