P3
10 5
255
120 198 121 255 255 255 255 255 255 255 255 255 255 255 255 255 255 255 
255 255 255 255 255 255 255 255 255 255 255 255 120 198 121 120 198 121 
120 198 121 120 198 121 120 198 121 120 198 121 120 198 121 120 198 121 
120 198 121 120 198 121 255 255 255 120 198 121 120 198 121 120 198 121 
120 198 121 120 198 121 120 198 121 120 198 121 120 198 121 120 198 121 
173 221 142 173 221 142 173 221 142 173 221 142 173 221 142 120 198 121 
120 198 121 120 198 121 120 198 121 120 198 121 173 221 142 173 221 142 
173 221 142 173 221 142 173 221 142 173 221 142 173 221 142 173 221 142 
173 221 142 173 221 142 
