P3
10 5 255
152 78 163
152 78 163
152 78 163
152 78 163
152 78 163
152 78 163
152 78 163
152 78 163
152 78 163
152 78 163
152 78 163
152 78 163
152 78 163
152 78 163
255 255 255
255 255 255
152 78 163
152 78 163
152 78 163
152 78 163
152 78 163
152 78 163
152 78 163
152 78 163
255 255 255
255 255 255
255 255 255
255 255 255
255 255 255
255 255 255
152 78 163
255 255 255
152 78 163
152 78 163
152 78 163
255 255 255
255 255 255
255 255 255
255 255 255
255 255 255
152 78 163
152 78 163
152 78 163
152 78 163
152 78 163
255 255 255
255 255 255
255 255 255
255 255 255
255 255 255
