P3
10 5
255
255 0 0 255 0 0 255 0 0 255 0 0 255 0 0 255 255 255 255 255 255 255 255 255 
255 255 255 255 255 255 255 0 0 255 0 0 255 0 0 255 0 0 255 0 0 255 255 255 
255 255 255 255 255 255 255 255 255 255 255 255 0 128 0 0 128 0 0 128 0 
0 128 0 0 191 191 0 191 191 255 255 255 255 255 255 255 255 255 255 255 255 
255 255 255 191 0 191 191 0 191 191 0 191 191 0 191 0 191 191 0 191 191 
0 191 191 0 191 191 255 255 255 255 255 255 255 255 255 255 255 255 
255 255 255 0 191 191 0 191 191 0 191 191 0 191 191 0 191 191 0 191 191 
