P3
10 5 255
253 218 236
253 218 236
253 218 236
253 218 236
253 218 236
253 218 236
253 218 236
253 218 236
253 218 236
253 218 236
253 218 236
253 218 236
253 218 236
253 218 236
253 218 236
253 218 236
253 218 236
253 218 236
253 218 236
253 218 236
253 218 236
253 218 236
253 218 236
253 218 236
253 218 236
253 218 236
253 218 236
253 218 236
253 218 236
255 255 255
253 218 236
253 218 236
253 218 236
253 218 236
253 218 236
253 218 236
253 218 236
253 218 236
253 218 236
255 255 255
253 218 236
253 218 236
253 218 236
253 218 236
253 218 236
253 218 236
255 255 255
255 255 255
253 218 236
255 255 255
