P3
10 5 255
222 203 228
222 203 228
222 203 228
222 203 228
222 203 228
222 203 228
222 203 228
222 203 228
222 203 228
222 203 228
222 203 228
255 255 255
255 255 255
222 203 228
222 203 228
255 255 255
255 255 255
255 255 255
255 255 255
255 255 255
222 203 228
222 203 228
255 255 255
222 203 228
222 203 228
255 255 255
255 255 255
255 255 255
255 255 255
255 255 255
222 203 228
222 203 228
255 255 255
255 255 255
222 203 228
222 203 228
255 255 255
255 255 255
255 255 255
255 255 255
222 203 228
222 203 228
222 203 228
255 255 255
222 203 228
222 203 228
222 203 228
222 203 228
255 255 255
255 255 255
