P3
10 5 255
228 26 28
228 26 28
228 26 28
247 129 191
247 129 191
247 129 191
247 129 191
247 129 191
247 129 191
247 129 191
228 26 28
228 26 28
228 26 28
247 129 191
247 129 191
247 129 191
247 129 191
247 129 191
247 129 191
247 129 191
228 26 28
228 26 28
228 26 28
228 26 28
228 26 28
228 26 28
247 129 191
255 255 255
255 255 255
255 255 255
228 26 28
228 26 28
228 26 28
228 26 28
228 26 28
228 26 28
228 26 28
228 26 28
255 255 255
255 255 255
228 26 28
228 26 28
228 26 28
228 26 28
228 26 28
255 255 255
255 255 255
228 26 28
228 26 28
228 26 28
