P3
10 5
255
255 255 51 255 255 51 255 255 51 255 255 255 255 255 255 255 255 255 
255 255 255 77 175 74 77 175 74 77 175 74 247 129 191 247 129 191 247 129 191 
247 129 191 255 255 255 255 255 255 255 255 255 255 127 0 255 127 0 255 127 0 
247 129 191 247 129 191 247 129 191 247 129 191 153 153 153 153 153 153 
153 153 153 153 153 153 255 127 0 255 127 0 255 255 255 255 255 255 
255 255 255 255 255 255 153 153 153 153 153 153 153 153 153 153 153 153 
153 153 153 255 127 0 255 255 255 255 255 255 255 255 255 255 255 255 
255 255 255 153 153 153 153 153 153 153 153 153 153 153 153 153 153 153 
