P3
# CREATOR: GIMP PNM Filter Version 1.1
20 20
255
107
84
84
107
84
84
107
84
84
107
84
84
107
84
84
107
84
84
107
84
84
107
84
84
107
84
84
107
84
84
107
84
84
107
84
84
107
84
84
107
84
84
107
84
84
107
84
84
107
84
84
107
84
84
107
84
84
107
84
84
107
84
84
107
84
84
107
84
84
107
84
84
107
84
84
107
84
84
107
84
84
107
84
84
107
84
84
107
84
84
107
84
84
219
44
44
219
44
44
219
44
44
219
44
44
107
84
84
107
84
84
107
84
84
107
84
84
107
84
84
107
84
84
107
84
84
219
44
44
219
44
44
219
44
44
219
44
44
219
44
44
219
44
44
107
84
84
107
84
84
219
44
44
219
44
44
107
84
84
107
84
84
219
44
44
219
44
44
219
44
44
219
44
44
107
84
84
107
84
84
107
84
84
107
84
84
219
44
44
107
84
84
107
84
84
107
84
84
107
84
84
219
44
44
219
44
44
219
44
44
219
44
44
107
84
84
107
84
84
107
84
84
107
84
84
107
84
84
107
84
84
219
44
44
219
44
44
107
84
84
107
84
84
219
44
44
255
255
255
219
44
44
107
84
84
107
84
84
107
84
84
107
84
84
107
84
84
107
84
84
107
84
84
107
84
84
107
84
84
107
84
84
107
84
84
107
84
84
107
84
84
107
84
84
219
44
44
107
84
84
107
84
84
107
84
84
107
84
84
107
84
84
107
84
84
107
84
84
107
84
84
107
84
84
107
84
84
107
84
84
107
84
84
107
84
84
107
84
84
107
84
84
107
84
84
107
84
84
107
84
84
219
44
44
219
44
44
107
84
84
107
84
84
107
84
84
219
44
44
107
84
84
107
84
84
107
84
84
107
84
84
107
84
84
107
84
84
107
84
84
107
84
84
107
84
84
107
84
84
107
84
84
107
84
84
107
84
84
107
84
84
219
44
44
107
84
84
107
84
84
107
84
84
219
44
44
255
255
255
219
44
44
107
84
84
107
84
84
107
84
84
107
84
84
107
84
84
107
84
84
107
84
84
107
84
84
107
84
84
107
84
84
107
84
84
107
84
84
107
84
84
219
44
44
107
84
84
107
84
84
107
84
84
107
84
84
219
44
44
219
44
44
107
84
84
107
84
84
107
84
84
107
84
84
107
84
84
107
84
84
219
44
44
219
44
44
219
44
44
219
44
44
107
84
84
107
84
84
107
84
84
219
44
44
107
84
84
107
84
84
107
84
84
107
84
84
107
84
84
219
44
44
107
84
84
107
84
84
107
84
84
107
84
84
107
84
84
219
44
44
219
44
44
107
84
84
107
84
84
219
44
44
107
84
84
107
84
84
107
84
84
219
44
44
107
84
84
107
84
84
107
84
84
107
84
84
107
84
84
219
44
44
107
84
84
107
84
84
107
84
84
107
84
84
107
84
84
219
44
44
107
84
84
107
84
84
107
84
84
219
44
44
107
84
84
107
84
84
107
84
84
219
44
44
107
84
84
107
84
84
107
84
84
107
84
84
107
84
84
219
44
44
107
84
84
107
84
84
107
84
84
107
84
84
107
84
84
219
44
44
107
84
84
107
84
84
107
84
84
219
44
44
219
44
44
107
84
84
107
84
84
219
44
44
107
84
84
107
84
84
107
84
84
107
84
84
107
84
84
219
44
44
107
84
84
107
84
84
107
84
84
107
84
84
107
84
84
219
44
44
107
84
84
107
84
84
107
84
84
107
84
84
219
44
44
107
84
84
107
84
84
219
44
44
107
84
84
107
84
84
107
84
84
107
84
84
107
84
84
219
44
44
219
44
44
107
84
84
107
84
84
107
84
84
107
84
84
219
44
44
107
84
84
107
84
84
107
84
84
107
84
84
219
44
44
107
84
84
107
84
84
219
44
44
107
84
84
107
84
84
107
84
84
107
84
84
107
84
84
107
84
84
219
44
44
219
44
44
219
44
44
219
44
44
219
44
44
219
44
44
107
84
84
107
84
84
107
84
84
107
84
84
219
44
44
107
84
84
107
84
84
219
44
44
107
84
84
107
84
84
107
84
84
107
84
84
107
84
84
107
84
84
107
84
84
107
84
84
107
84
84
107
84
84
107
84
84
107
84
84
107
84
84
107
84
84
107
84
84
107
84
84
219
44
44
107
84
84
107
84
84
219
44
44
107
84
84
107
84
84
107
84
84
107
84
84
107
84
84
107
84
84
107
84
84
107
84
84
107
84
84
107
84
84
107
84
84
107
84
84
107
84
84
107
84
84
107
84
84
107
84
84
219
44
44
107
84
84
219
44
44
219
44
44
107
84
84
107
84
84
107
84
84
107
84
84
107
84
84
107
84
84
107
84
84
107
84
84
107
84
84
107
84
84
107
84
84
107
84
84
107
84
84
107
84
84
107
84
84
107
84
84
219
44
44
219
44
44
219
44
44
107
84
84
107
84
84
107
84
84
107
84
84
107
84
84
107
84
84
107
84
84
107
84
84
107
84
84
107
84
84
107
84
84
107
84
84
107
84
84
107
84
84
107
84
84
107
84
84
107
84
84
107
84
84
107
84
84
107
84
84
107
84
84
107
84
84
107
84
84
107
84
84
107
84
84
107
84
84
107
84
84
107
84
84
107
84
84
107
84
84
107
84
84
107
84
84
107
84
84
107
84
84
107
84
84
107
84
84
107
84
84
107
84
84
107
84
84
107
84
84
107
84
84
107
84
84
107
84
84
