P3
# CREATOR: GIMP PNM Filter Version 1.1
25 1
255
92
74
74
222
42
42
92
74
74
222
42
42
255
255
255
222
42
42
92
74
74
191
177
177
92
74
74
155
248
185
107
234
149
46
213
101
121
232
223
140
227
146
42
112
47
34
65
36
188
222
190
74
141
217
38
89
147
29
43
58
79
84
90
5
5
5
38
47
56
38
47
56
255
255
255
